Coordinates
version=1
nRows=17
nColumns=33
inDegrees=yes

Units are S.I. units (second, meters, Newtons, ...)
Angles are in degrees.

endheader
time	ground_thorax_rot_x	ground_thorax_rot_y	ground_thorax_rot_z	ground_thorax_tx	ground_thorax_ty	ground_thorax_tz	clav_prot_r	clav_elev_r	scapula_abduction_r	scapula_elevation_r	scapula_upward_rot_r	scapula_winging_r	shoulder_elv_r	plane_of_elev_r	axial_rot_r	elbow_flexion_r	pro_sup_r	wrist_flex_r	wrist_dev_r	clav_prot_l	clav_elev_l	scapula_abduction_l	scapula_elevation_l	scapula_upward_rot_l	scapula_winging_l	shoulder_elv_l	plane_of_elev_l	axial_rot_l	elbow_flexion_l	pro_sup_l	wrist_flex_l	wrist_dev_l
      5.43000000	    -38.72884842	    -10.91429012	      9.83959749	   -109.97219001	    800.46296325	     -1.06419716	      2.05594878	    -45.00000000	     44.99017171	    -45.00000000	      6.75628445	  -5151.52186454	  -2814.76874663	     19.95525156	   -179.99999979	   3246.19215678	   -107.29388483	     15.10688108	     11.04729659	     18.01503169	     40.06612282	    -41.09229784	    -45.00000000	    -45.00000000	   4398.04381916	  -6052.06094173	     24.32796498	    -25.59941064	   3245.81171173	     14.08115275	     11.64726050	    -18.85279594
      5.44000000	    -38.80742680	    -10.97144166	      9.80848869	   -115.82254666	    802.05027777	     -1.48539727	      1.91152945	    -45.00000000	     44.79343683	    -45.00000000	      6.00581265	  -5151.81950733	  -2814.50086038	     20.18793013	   -179.99999979	   3246.16848272	   -105.48484179	     15.22266814	     10.98404673	     18.42650478	     39.75027560	    -40.82316776	    -45.00000000	    -45.00000000	   4398.22223462	  -6051.73912705	     23.66707689	    -27.69251658	   3246.16389757	     14.68930066	     11.33623830	    -18.90971022
      5.45000000	    -38.86044875	    -11.35279647	     10.21985118	   -121.76508888	    803.76492527	     -1.90944013	      2.72066203	    -45.00000000	     43.31007117	    -45.00000000	      3.35541512	  -5150.92608295	  -2814.27483054	     20.15918171	   -179.99999979	   3245.90561399	   -102.63911937	     15.71956488	     10.93565316	     17.58909380	     39.70937762	    -40.23602977	    -45.00000000	    -45.00000000	   4398.55203677	  -6051.78972501	     23.65895536	    -27.27053937	   3246.05270476	     15.07326953	     11.74990091	    -19.15391670
      5.46000000	    -38.91178383	    -11.93173256	     10.85099260	   -127.77687874	    805.60293924	     -2.33213667	      2.73532513	    -45.00000000	     41.85943530	    -45.00000000	     -0.11886756	  -5150.01169607	  -2814.18568490	     20.25267707	   -179.99999979	   3245.46636118	    -99.40727486	     16.12264243	     10.80553886	     17.27713140	     39.70417073	    -39.70155281	    -45.00000000	    -45.00000000	   4399.08440268	  -6051.68863960	     23.19536180	    -29.19703477	   3246.29150963	     15.94710104	     11.51709915	    -19.31591640
      5.47000000	    -38.97628826	    -12.26119549	     11.18058562	   -133.83342300	    807.56259940	     -2.74791467	      3.08630336	    -45.00000000	     40.81413653	    -45.00000000	     -2.47862032	  -5149.55573709	  -2813.97576947	     20.47425949	   -179.99999979	   3245.24135809	    -96.35314588	     16.48487135	     10.68516468	     17.21768255	     39.56223990	    -39.26298973	    -45.00000000	    -45.00000000	   4399.42009606	  -6051.49712883	     22.72003234	    -30.79582723	   3246.52055934	     16.74674091	     11.51821982	    -19.51654179
      5.48000000	    -39.09796695	    -12.53180247	     11.46654594	   -139.90793549	    809.64459179	     -3.15080442	      3.27377350	    -45.00000000	     39.86954663	    -45.00000000	     -4.61657782	  -5149.20920678	  -2813.77171900	     20.63609132	   -179.99999979	   3245.03083595	    -93.15777753	     16.85547787	     10.56434898	     17.07579041	     39.45677523	    -38.89119650	    -45.00000000	    -45.00000000	   4399.87686926	  -6051.32175474	     22.35838747	    -32.36087272	   3246.71266726	     17.61584844	     11.38715880	    -19.69164898
      5.49000000	    -39.21423779	    -12.68011713	     11.56602416	   -145.97226541	    811.84964371	     -3.53457349	      3.39858908	    -45.00000000	     39.14549388	    -45.00000000	     -6.28317866	  -5148.97260959	  -2813.52892136	     20.76674676	   -179.99999979	   3244.79154840	    -89.83625188	     17.22565191	     10.40867844	     16.88175613	     39.35035565	    -38.56785037	    -45.00000000	    -45.00000000	   4400.29154797	  -6051.18056316	     22.01186249	    -33.66210647	   3246.93028476	     18.51434129	     11.29382427	    -19.89797876
      5.50000000	    -39.34398363	    -12.75084849	     11.59464764	   -151.99652589	    814.17801455	     -3.89290132	      3.58479328	    -45.00000000	     38.55501558	    -45.00000000	     -7.63393024	  -5148.90827119	  -2813.28716281	     20.94212999	   -179.99999979	   3244.63425031	    -86.68000682	     17.56874603	     10.25346291	     16.79744982	     39.26180057	    -38.28091380	    -45.00000000	    -45.00000000	   4400.67622748	  -6050.99782394	     21.69501600	    -34.95332307	   3247.14776714	     19.51328003	     11.20919223	    -20.11568201
      5.51000000	    -39.47976589	    -12.76581845	     11.52950202	   -157.95088482	    816.62827028	     -4.21957491	      3.76867974	    -45.00000000	     38.04699627	    -45.00000000	     -8.89511092	  -5148.89544711	  -2813.09593686	     21.16525499	   -179.99999979	   3244.51642115	    -83.84103747	     17.88959416	     10.10798178	     16.79402635	     39.06732289	    -37.96691990	    -45.00000000	    -45.00000000	   4401.03141467	  -6050.76204433	     21.38793998	    -36.30328240	   3247.41492191	     20.54788365	     11.09196890	    -20.33932571
      5.52000000	    -39.61917736	    -12.76351644	     11.44590729	   -163.80823618	    819.19707863	     -4.50906164	      3.87879479	    -45.00000000	     37.63237738	    -45.00000000	     -9.87551413	  -5148.92022829	  -2812.84020365	     21.27547887	   -179.99999979	   3244.35274768	    -81.16210327	     18.20658962	      9.92795184	     16.62713992	     39.01250397	    -37.72174951	    -45.00000000	    -45.00000000	   4401.40308065	  -6050.59463656	     21.08235447	    -37.40727499	   3247.64429892	     21.64860092	     10.96840412	    -20.57255561
      5.53000000	    -39.75850457	    -12.70104055	     11.25040371	   -169.53938278	    821.87630178	     -4.75667613	      3.97543936	    -45.00000000	     37.41371354	    -45.00000000	    -10.76244360	  -5149.04653365	  -2812.67241870	     21.49492354	   -179.99999979	   3244.34402220	    -78.95038099	     18.47500898	      9.82935806	     16.62965087	     38.70237258	    -37.46349873	    -45.00000000	    -45.00000000	   4401.86468417	  -6050.47306313	     20.86842734	    -38.90866776	   3247.95736266	     22.77176173	     10.64280536	    -20.74893127
      5.54000000	    -39.90782187	    -12.62488007	     11.17845521	   -175.11514735	    824.65519454	     -4.95931215	      4.10127919	    -45.00000000	     37.00452560	    -45.00000000	    -11.75732584	  -5149.04973983	  -2812.41249384	     21.50202041	   -179.99999979	   3244.12054946	    -76.94661159	     18.74988599	      9.61559439	     16.37180267	     38.69669347	    -37.31298246	    -45.00000000	    -45.00000000	   4402.20193617	  -6050.25557080	     20.55117474	    -39.77557647	   3248.17450999	     24.02143508	     10.55573400	    -20.99940960
      5.55000000	    -40.03953071	    -12.51436109	     10.99824969	   -180.50913315	    827.52096307	     -5.11619841	      4.19947342	    -45.00000000	     36.74372822	    -45.00000000	    -12.46291047	  -5149.14122752	  -2812.16365837	     21.62186106	   -179.99999979	   3244.13054329	    -75.35692958	     18.98570952	      9.50279865	     16.27960782	     38.63218960	    -37.10395284	    -45.00000000	    -45.00000000	   4402.59075964	  -6050.12252844	     20.34940821	    -40.87432244	   3248.43124786	     25.28622427	     10.32730306	    -21.19984765
      5.56000000	    -40.17419004	    -12.45120140	     10.87716506	   -185.69533996	    830.45955201	     -5.22954073	      4.27117196	    -45.00000000	     36.44191646	    -45.00000000	    -13.22898603	  -5149.20877325	  -2811.88563336	     21.74636091	   -179.99999979	   3244.08413430	    -74.18436402	     19.19733619	      9.38801719	     16.13817577	     38.55037906	    -36.88604267	    -45.00000000	    -45.00000000	   4402.95539656	  -6049.95135667	     20.10799957	    -41.89085861	   3248.66991469	     26.62380094	     10.08995407	    -21.38248559
      5.57000000	    -40.30837025	    -12.28445516	     10.66234528	   -190.64809594	    833.45431817	     -5.30482075	      4.38288122	    -45.00000000	     36.24332262	    -45.00000000	    -13.76106061	  -5149.33068158	  -2811.64483822	     21.84041823	   -179.99999979	   3244.09934643	    -73.33392357	     19.38762680	      9.30564268	     16.00908433	     38.52844716	    -36.71041679	    -45.00000000	    -45.00000000	   4403.27250115	  -6049.79150034	     19.90622115	    -42.70715178	   3248.93395531	     27.96319334	      9.90512199	    -21.58363242
      5.58000000	    -40.42974589	    -12.10882378	     10.44653061	   -195.34666471	    836.48862274	     -5.35098320	      4.45425205	    -45.00000000	     36.12171251	    -45.00000000	    -14.19392861	  -5149.48227398	  -2811.39184808	     21.93043352	   -179.99999979	   3244.08525052	    -72.79393944	     19.54393791	      9.24062672	     15.89454105	     38.44622512	    -36.52116840	    -45.00000000	    -45.00000000	   4403.59003597	  -6049.61572547	     19.73346064	    -43.54674104	   3249.19192694	     29.28414702	      9.66004363	    -21.73701414
      5.59000000	    -40.53612875	    -11.91547652	     10.20386449	   -199.77237551	    839.54402119	     -5.37902721	      4.48815829	    -45.00000000	     36.05579657	    -45.00000000	    -14.45563961	  -5149.67303649	  -2811.14492156	     22.00612891	   -179.99999979	   3244.05476327	    -72.52682542	     19.67840050	      9.19553750	     15.79186240	     38.33086140	    -36.39299780	    -45.00000000	    -45.00000000	   4403.93056547	  -6049.52180390	     19.57978003	    -44.43686853	   3249.39275021	     30.52856227	      9.38189425	    -21.83092394
